<svg width="24" height="24" viewBox="0 0 24 24" id="root" xmlns="http://www.w3.org/2000/svg">
<path fill-rule="evenodd" clip-rule="evenodd" d="M7 6C7 3.23858 9.23858 1 12 1C14.7614 1 17 3.23858 17 6H19C20.6569 6 22 7.34315 22 9V18C22 20.7614 19.7614 23 17 23H7C4.23858 23 2 20.7614 2 18V9C2 7.34315 3.34315 6 5 6H7ZM9 6C9 4.34315 10.3431 3 12 3C13.6569 3 15 4.34315 15 6H9ZM7 8V11C7 11.5523 7.44772 12 8 12C8.55228 12 9 11.5523 9 11V8H15V11C15 11.5523 15.4477 12 16 12C16.5523 12 17 11.5523 17 11V8H19C19.5523 8 20 8.44772 20 9V18C20 19.6569 18.6569 21 17 21H7C5.34315 21 4 19.6569 4 18V9C4 8.44772 4.44772 8 5 8H7Z" fill="currentColor"/>
</svg>
