<svg width="24" height="24" viewBox="0 0 24 24" id="root" xmlns="http://www.w3.org/2000/svg">
<path d="M6 15C5.44772 15 5 15.4477 5 16C5 16.5523 5.44772 17 6 17H7C7.55228 17 8 16.5523 8 16C8 15.4477 7.55228 15 7 15H6Z" fill="currentColor"/>
<path d="M11 15C10.4477 15 10 15.4477 10 16C10 16.5523 10.4477 17 11 17H15C15.5523 17 16 16.5523 16 16C16 15.4477 15.5523 15 15 15H11Z" fill="currentColor"/>
<path fill-rule="evenodd" clip-rule="evenodd" d="M0 6C0 4.34315 1.34315 3 3 3H21C22.6569 3 24 4.34315 24 6V18C24 19.6569 22.6569 21 21 21H3C1.34314 21 0 19.6569 0 18V6ZM3 5C2.44772 5 2 5.44772 2 6V8H22V6C22 5.44771 21.5523 5 21 5H3ZM22 10H2V18C2 18.5523 2.44772 19 3 19H21C21.5523 19 22 18.5523 22 18V10Z" fill="currentColor"/>
</svg>
