<svg width="32" height="32" viewBox="0 0 32 32" id="root" xmlns="http://www.w3.org/2000/svg">
<path d="M7.60946 5.72384C7.08876 5.20314 6.24454 5.20314 5.72384 5.72384C5.20314 6.24454 5.20314 7.08876 5.72384 7.60946L14.1145 16.0001L5.72384 24.3907C5.20314 24.9114 5.20314 25.7556 5.72384 26.2763C6.24454 26.797 7.08876 26.797 7.60946 26.2763L16.0001 17.8857L24.3905 26.2761C24.9112 26.7968 25.7554 26.7968 26.2761 26.2761C26.7968 25.7554 26.7968 24.9112 26.2761 24.3905L17.8857 16.0001L26.2761 7.60966C26.7968 7.08896 26.7968 6.24474 26.2761 5.72404C25.7554 5.20334 24.9112 5.20334 24.3905 5.72404L16.0001 14.1145L7.60946 5.72384Z" fill="currentColor"/>
</svg>
