<svg width="24" height="24" viewBox="0 0 24 24" id="root" xmlns="http://www.w3.org/2000/svg">
<path fill-rule="evenodd" clip-rule="evenodd" d="M6.12727 4.04209C4.48884 4.29066 3 5.66688 3 8.22843C3 9.47358 3.52019 10.8384 4.4074 12.2397C5.28814 13.6308 6.47933 14.9773 7.69805 16.1654C8.91306 17.3499 10.132 18.3543 11.0492 19.0636C11.4255 19.3546 11.7495 19.5948 12 19.7763C12.2505 19.5948 12.5745 19.3546 12.9508 19.0636C13.868 18.3543 15.0869 17.3499 16.3019 16.1654C17.5207 14.9773 18.7119 13.6308 19.5926 12.2397C20.4798 10.8384 21 9.47358 21 8.22843C21 5.66688 19.5112 4.29066 17.8727 4.04209C16.2089 3.78966 14.1101 4.66543 12.9085 7.27788C12.7453 7.63268 12.3905 7.86002 12 7.86002C11.6095 7.86002 11.2547 7.63268 11.0915 7.27788C9.88992 4.66543 7.7911 3.78966 6.12727 4.04209ZM12 21L12.5581 21.8298C12.2206 22.0568 11.7794 22.0568 11.4419 21.8298L12 21ZM12 4.88494C10.3849 2.67403 8.02171 1.73179 5.82727 2.06472C3.14752 2.47127 1 4.74407 1 8.22843C1 10.0062 1.72981 11.7494 2.7176 13.3095C3.71186 14.8799 5.02067 16.3484 6.30195 17.5975C7.58694 18.8502 8.86795 19.905 9.82575 20.6457C10.3055 21.0167 10.7061 21.3104 10.9883 21.5124C11.1294 21.6134 11.241 21.6916 11.3183 21.7451C11.3569 21.7718 11.3869 21.7924 11.4077 21.8066L11.4319 21.8231L11.4387 21.8277L11.4419 21.8298C11.4419 21.8298 11.4419 21.8298 12 21C12.5581 21.8298 12.5581 21.8298 12.5581 21.8298L12.5613 21.8277L12.5681 21.8231L12.5923 21.8066C12.6131 21.7924 12.6431 21.7718 12.6817 21.7451C12.759 21.6916 12.8706 21.6134 13.0117 21.5124C13.2939 21.3104 13.6945 21.0167 14.1742 20.6457C15.132 19.905 16.4131 18.8502 17.6981 17.5975C18.9793 16.3484 20.2881 14.8799 21.2824 13.3095C22.2702 11.7494 23 10.0062 23 8.22843C23 4.74407 20.8525 2.47127 18.1727 2.06472C15.9783 1.73179 13.6151 2.67403 12 4.88494Z" fill="currentColor"/>
</svg>
