<svg width="20" height="20" viewBox="0 0 20 20" id="root" xmlns="http://www.w3.org/2000/svg">
<path fill-rule="evenodd" clip-rule="evenodd" d="M5.10622 3.36841C3.74086 3.57555 2.50016 4.7224 2.50016 6.85702C2.50016 7.89465 2.93365 9.03198 3.67299 10.1997C4.40694 11.359 5.39961 12.4811 6.4152 13.4712C7.42771 14.4582 8.44353 15.2953 9.20787 15.8864C9.52137 16.1288 9.79144 16.329 10.0002 16.4803C10.2089 16.329 10.479 16.1288 10.7925 15.8864C11.5568 15.2953 12.5726 14.4582 13.5851 13.4712C14.6007 12.4811 15.5934 11.359 16.3273 10.1997C17.0667 9.03198 17.5002 7.89465 17.5002 6.85702C17.5002 4.7224 16.2595 3.57555 14.8941 3.36841C13.5076 3.15805 11.7586 3.88786 10.7573 6.0649C10.6213 6.36057 10.3256 6.55002 10.0002 6.55002C9.67472 6.55002 9.37906 6.36057 9.24307 6.0649C8.24176 3.88786 6.49275 3.15805 5.10622 3.36841ZM10.0002 17.5L10.4652 18.1915C10.184 18.3806 9.8163 18.3806 9.53509 18.1915L10.0002 17.5ZM10.0002 4.07079C8.65421 2.22836 6.68492 1.44316 4.85622 1.7206C2.6231 2.0594 0.833496 3.9534 0.833496 6.85702C0.833496 8.33853 1.44167 9.79114 2.26483 11.0913C3.09338 12.3999 4.18405 13.6237 5.25179 14.6646C6.32261 15.7085 7.39012 16.5875 8.18829 17.2048C8.58805 17.5139 8.92192 17.7587 9.15707 17.927C9.27467 18.0112 9.3677 18.0763 9.43204 18.1209C9.46422 18.1432 9.48923 18.1603 9.50657 18.1722L9.52677 18.1859L9.53244 18.1897L9.53509 18.1915C9.53509 18.1915 9.53509 18.1915 10.0002 17.5C10.4652 18.1915 10.4652 18.1915 10.4652 18.1915L10.4679 18.1897L10.4736 18.1859L10.4938 18.1722C10.5111 18.1603 10.5361 18.1432 10.5683 18.1209C10.6326 18.0763 10.7256 18.0112 10.8433 17.927C11.0784 17.7587 11.4123 17.5139 11.812 17.2048C12.6102 16.5875 13.6777 15.7085 14.7485 14.6646C15.8163 13.6237 16.9069 12.3999 17.7355 11.0913C18.5587 9.79114 19.1668 8.33853 19.1668 6.85702C19.1668 3.9534 17.3772 2.0594 15.1441 1.7206C13.3154 1.44316 11.3461 2.22836 10.0002 4.07079Z" fill="currentColor"/>
</svg>
