<svg width="24" height="24" viewBox="0 0 24 24" id="root" xmlns="http://www.w3.org/2000/svg">
<path fill-rule="evenodd" clip-rule="evenodd" d="M12 6C9.79086 6 8 7.79086 8 10C8 12.2091 9.79086 14 12 14C14.2091 14 16 12.2091 16 10C16 7.79086 14.2091 6 12 6ZM10 10C10 8.89543 10.8954 8 12 8C13.1046 8 14 8.89543 14 10C14 11.1046 13.1046 12 12 12C10.8954 12 10 11.1046 10 10Z" fill="currentColor"/>
<path fill-rule="evenodd" clip-rule="evenodd" d="M12 0C6.49846 0 2 4.36654 2 9.8C2 13.4667 4.19629 16.999 6.36628 19.5264C7.46827 20.8099 8.60528 21.8831 9.54221 22.6425C10.0094 23.0211 10.4401 23.3326 10.8024 23.5554C10.9824 23.666 11.1618 23.765 11.3314 23.8396C11.4689 23.9001 11.7187 24 12 24C12.2813 24 12.5311 23.9001 12.6686 23.8396C12.8382 23.765 13.0176 23.666 13.1976 23.5554C13.5599 23.3326 13.9906 23.0211 14.4578 22.6425C15.3947 21.8831 16.5317 20.8099 17.6337 19.5264C19.8037 16.999 22 13.4667 22 9.8C22 4.36654 17.5015 0 12 0ZM4 9.8C4 5.51325 7.56042 2 12 2C16.4396 2 20 5.51325 20 9.8C20 12.7333 18.1963 15.801 16.1163 18.2236C15.0933 19.4151 14.0428 20.4044 13.1985 21.0888C12.775 21.432 12.4166 21.6877 12.15 21.8517C12.093 21.8868 12.043 21.9158 12 21.9396C11.957 21.9158 11.907 21.8868 11.85 21.8517C11.5834 21.6877 11.225 21.432 10.8015 21.0888C9.95722 20.4044 8.90673 19.4151 7.88372 18.2236C5.80371 15.801 4 12.7333 4 9.8Z" fill="currentColor"/>
</svg>
