<svg width="20" height="20" viewBox="0 0 20 20" id="root" xmlns="http://www.w3.org/2000/svg">
<path fill-rule="evenodd" clip-rule="evenodd" d="M10.0001 5C8.15913 5 6.66675 6.49238 6.66675 8.33333C6.66675 10.1743 8.15913 11.6667 10.0001 11.6667C11.841 11.6667 13.3334 10.1743 13.3334 8.33333C13.3334 6.49238 11.841 5 10.0001 5ZM8.33341 8.33333C8.33341 7.41286 9.07961 6.66667 10.0001 6.66667C10.9206 6.66667 11.6667 7.41286 11.6667 8.33333C11.6667 9.25381 10.9206 10 10.0001 10C9.07961 10 8.33341 9.25381 8.33341 8.33333Z" fill="currentColor"/>
<path fill-rule="evenodd" clip-rule="evenodd" d="M10.0001 0C5.41546 0 1.66675 3.63879 1.66675 8.16667C1.66675 11.2223 3.49699 14.1658 5.30532 16.272C6.22364 17.3416 7.17115 18.2359 7.95192 18.8687C8.34123 19.1843 8.70014 19.4438 9.00206 19.6295C9.15206 19.7217 9.30159 19.8041 9.44291 19.8663C9.55747 19.9167 9.7657 20 10.0001 20C10.2345 20 10.4427 19.9167 10.5573 19.8663C10.6986 19.8041 10.8481 19.7217 10.9981 19.6295C11.3 19.4438 11.6589 19.1843 12.0482 18.8687C12.829 18.2359 13.7765 17.3416 14.6948 16.272C16.5032 14.1658 18.3334 11.2223 18.3334 8.16667C18.3334 3.63879 14.5847 0 10.0001 0ZM3.33341 8.16667C3.33341 4.59437 6.30043 1.66667 10.0001 1.66667C13.6997 1.66667 16.6667 4.59437 16.6667 8.16667C16.6667 10.611 15.1637 13.1675 13.4303 15.1863C12.5778 16.1792 11.7024 17.0037 10.9988 17.574C10.6459 17.86 10.3473 18.0731 10.1251 18.2097C10.0775 18.239 10.0359 18.2632 10.0001 18.283C9.96425 18.2632 9.92262 18.239 9.87506 18.2097C9.65289 18.0731 9.35425 17.86 9.00137 17.574C8.29776 17.0037 7.42235 16.1792 6.56984 15.1863C4.83651 13.1675 3.33341 10.611 3.33341 8.16667Z" fill="currentColor"/>
</svg>
