<svg width="24" height="24" viewBox="0 0 24 24" id="root" xmlns="http://www.w3.org/2000/svg">
<path fill-rule="evenodd" clip-rule="evenodd" d="M11.9617 5.23607L10.4431 9.90983C10.3092 10.3219 9.92526 10.6008 9.49204 10.6008H4.57775L8.55349 13.4894C8.90398 13.744 9.05064 14.1954 8.91676 14.6074L7.39816 19.2812L11.3739 16.3926C11.5491 16.2653 11.7554 16.2016 11.9617 16.2016V5.23607Z" fill="#FFB800"/>
<path fill-rule="evenodd" clip-rule="evenodd" d="M11.9617 1C11.5285 1 11.1445 1.27896 11.0106 1.69098L8.76549 8.60081H1.50007C1.06684 8.60081 0.682886 8.87977 0.549012 9.2918C0.415137 9.70382 0.561795 10.1552 0.912283 10.4098L6.79013 14.6803L4.545 21.5902C4.41112 22.0022 4.55778 22.4536 4.90827 22.7082C5.25875 22.9628 5.73335 22.9628 6.08384 22.7082L11.9617 18.4377V16.2016C11.7554 16.2016 11.5491 16.2653 11.3739 16.3926L7.39816 19.2812L8.91676 14.6074C9.05064 14.1954 8.90398 13.744 8.55349 13.4894L4.57775 10.6008H9.49204C9.92526 10.6008 10.3092 10.3219 10.4431 9.90983L11.9617 5.23607V1Z" fill="#FFB800"/>
<path d="M12.9127 1.69098C12.7789 1.27896 12.3949 1 11.9617 1V5.23607L13.4803 9.90983C13.6142 10.3219 13.9981 10.6008 14.4313 10.6008H19.3456L15.3699 13.4894C15.0194 13.744 14.8727 14.1954 15.0066 14.6074L16.5252 19.2812L12.5495 16.3926C12.3742 16.2653 12.168 16.2016 11.9617 16.2016V18.4377L17.8395 22.7082C18.19 22.9628 18.6646 22.9628 19.0151 22.7082C19.3656 22.4536 19.5123 22.0022 19.3784 21.5902L17.1332 14.6803L23.0111 10.4098C23.3616 10.1552 23.5082 9.70382 23.3744 9.2918C23.2405 8.87977 22.8565 8.60081 22.4233 8.60081H15.1579L12.9127 1.69098Z" fill="#9098B1"/>
</svg>
