<svg width="24" height="24" viewBox="0 0 24 24" fill="none" xmlns="http://www.w3.org/2000/svg">
<path fill-rule="evenodd" clip-rule="evenodd" d="M11.9617 1C12.3949 1 12.7789 1.27896 12.9127 1.69098L15.1579 8.60081H22.4233C22.8565 8.60081 23.2405 8.87977 23.3744 9.2918C23.5082 9.70382 23.3616 10.1552 23.0111 10.4098L17.1332 14.6803L19.3784 21.5902C19.5123 22.0022 19.3656 22.4536 19.0151 22.7082C18.6646 22.9628 18.19 22.9628 17.8395 22.7082L11.9617 18.4377L6.08384 22.7082C5.73335 22.9628 5.25875 22.9628 4.90827 22.7082C4.55778 22.4536 4.41112 22.0022 4.545 21.5902L6.79013 14.6803L0.912283 10.4098C0.561795 10.1552 0.415137 9.70382 0.549012 9.2918C0.682886 8.87977 1.06684 8.60081 1.50007 8.60081H8.76549L11.0106 1.69098C11.1445 1.27896 11.5285 1 11.9617 1ZM11.9617 5.23607L10.4431 9.90983C10.3092 10.3219 9.92526 10.6008 9.49204 10.6008H4.57775L8.55349 13.4894C8.90398 13.744 9.05064 14.1954 8.91676 14.6074L7.39816 19.2812L11.3739 16.3926C11.7244 16.138 12.199 16.138 12.5495 16.3926L16.5252 19.2812L15.0066 14.6074C14.8727 14.1954 15.0194 13.744 15.3699 13.4894L19.3456 10.6008H14.4313C13.9981 10.6008 13.6142 10.3219 13.4803 9.90983L11.9617 5.23607Z" fill="#FFB800"/>
<path d="M10.4431 9.90983L11.9617 5.23607L13.4803 9.90983C13.6142 10.3219 13.9981 10.6008 14.4313 10.6008H19.3456L15.3699 13.4894C15.0194 13.744 14.8727 14.1954 15.0066 14.6074L16.5252 19.2812L12.5495 16.3926C12.199 16.138 11.7244 16.138 11.3739 16.3926L7.39816 19.2812L8.91676 14.6074C9.05064 14.1954 8.90398 13.744 8.55349 13.4894L4.57775 10.6008H9.49204C9.92526 10.6008 10.3092 10.3219 10.4431 9.90983Z" fill="#FFB800"/>
</svg>
