<svg width="24" height="24" viewBox="0 0 24 24" id="root" xmlns="http://www.w3.org/2000/svg">
<path fill-rule="evenodd" clip-rule="evenodd" d="M19 9C21.2091 9 23 7.20914 23 5C23 2.79086 21.2091 1 19 1C16.7909 1 15 2.79086 15 5C15 5.28739 15.0303 5.5677 15.0879 5.83791L8.01688 9.37342C7.28357 8.53186 6.2039 8 5 8C2.79086 8 1 9.79086 1 12C1 14.2091 2.79086 16 5 16C6.32802 16 7.50488 15.3528 8.23241 14.3566L15.1009 18.1031C15.0349 18.3914 15 18.6916 15 19C15 21.2091 16.7909 23 19 23C21.2091 23 23 21.2091 23 19C23 16.7909 21.2091 15 19 15C17.8179 15 16.7556 15.5128 16.0233 16.328L8.97132 12.4815C8.99025 12.3236 9 12.163 9 12C9 11.7125 8.96968 11.4322 8.91206 11.1619L15.983 7.62643C16.7163 8.46808 17.796 9 19 9ZM19 7C20.1046 7 21 6.10457 21 5C21 3.89543 20.1046 3 19 3C17.8954 3 17 3.89543 17 5C17 6.10457 17.8954 7 19 7ZM5 14C6.10457 14 7 13.1046 7 12C7 10.8954 6.10457 10 5 10C3.89543 10 3 10.8954 3 12C3 13.1046 3.89543 14 5 14ZM21 19C21 20.1046 20.1046 21 19 21C17.8954 21 17 20.1046 17 19C17 17.8954 17.8954 17 19 17C20.1046 17 21 17.8954 21 19Z" fill="currentColor"/>
</svg>
