<svg width="24" height="24" viewBox="0 0 24 24" id="root" xmlns="http://www.w3.org/2000/svg">
    <path fill-rule="evenodd" clip-rule="evenodd" d="M18.3287 18.743C16.6048 20.1536 14.4013 21 12 21C6.47715 21 2 16.5228 2 11C2 5.47715 6.47715 1 12 1C17.5228 1 22 5.47715 22 11C22 13.4013 21.1536 15.6049 19.7429 17.3288L22.7071 20.293C23.0976 20.6835 23.0976 21.3167 22.7071 21.7072C22.3166 22.0977 21.6834 22.0977 21.2929 21.7072L18.3287 18.743ZM20 11C20 15.4183 16.4183 19 12 19C7.58172 19 4 15.4183 4 11C4 6.58172 7.58172 3 12 3C16.4183 3 20 6.58172 20 11Z" fill="currentColor"/>
</svg>
