<svg width="20" height="20" viewBox="0 0 20 20" id="root" xmlns="http://www.w3.org/2000/svg">
<path fill-rule="evenodd" clip-rule="evenodd" d="M8.33333 0.833313C7.8731 0.833313 7.5 1.20641 7.5 1.66665V3.33331H3.33333C2.8731 3.33331 2.5 3.70641 2.5 4.16665C2.5 4.62688 2.8731 4.99998 3.33333 4.99998H16.6667C17.1269 4.99998 17.5 4.62688 17.5 4.16665C17.5 3.70641 17.1269 3.33331 16.6667 3.33331H12.5V1.66665C12.5 1.20641 12.1269 0.833313 11.6667 0.833313H8.33333ZM10.8333 3.33331H9.16667V2.49998H10.8333V3.33331Z" fill="currentColor"/>
<path d="M8.33333 9.16665C8.79357 9.16665 9.16667 9.53974 9.16667 9.99998V15C9.16667 15.4602 8.79357 15.8333 8.33333 15.8333C7.8731 15.8333 7.5 15.4602 7.5 15V9.99998C7.5 9.53974 7.8731 9.16665 8.33333 9.16665Z" fill="currentColor"/>
<path d="M12.5 9.99998C12.5 9.53974 12.1269 9.16665 11.6667 9.16665C11.2064 9.16665 10.8333 9.53974 10.8333 9.99998V15C10.8333 15.4602 11.2064 15.8333 11.6667 15.8333C12.1269 15.8333 12.5 15.4602 12.5 15V9.99998Z" fill="currentColor"/>
<path fill-rule="evenodd" clip-rule="evenodd" d="M4.16667 5.83331C3.70643 5.83331 3.33333 6.20641 3.33333 6.66665V16.6666C3.33333 18.0474 4.45262 19.1666 5.83333 19.1666H14.1667C15.5474 19.1666 16.6667 18.0474 16.6667 16.6666V6.66665C16.6667 6.20641 16.2936 5.83331 15.8333 5.83331H4.16667ZM5 16.6666V7.49998H15V16.6666C15 17.1269 14.6269 17.5 14.1667 17.5H5.83333C5.3731 17.5 5 17.1269 5 16.6666Z" fill="currentColor"/>
</svg>
