<svg width="88" height="48" viewBox="0 0 88 48" id="root" xmlns="http://www.w3.org/2000/svg">
<path d="M24.2926 5.15748H4.23486L5.4314 7.95209H23.9465L24.2926 5.15748Z" fill="currentColor"/>
<path d="M23.5427 11.2125H6.82741L8.02399 14.0071H23.1965L23.5427 11.2125Z" fill="currentColor"/>
<path d="M22.7927 17.2674H9.41996L10.6165 20.0621H22.4466L22.7927 17.2674Z" fill="currentColor"/>
<path d="M22.0428 23.3224H12.0125L13.2091 26.117H21.6967L22.0428 23.3224Z" fill="currentColor"/>
<path d="M21.2929 29.3774H14.6051L15.8016 32.172H20.9467L21.2929 29.3774Z" fill="currentColor"/>
<path fill-rule="evenodd" clip-rule="evenodd" d="M27.7761 3.2944L23.9392 34.0351H30.3601L31.8479 37.4507H36.3112L39.9132 35.2772L46.4907 34.9666L50.0144 37.606H65.6751L68.1025 35.5877L76.4027 35.2772L79.4566 37.606H81.8339L82.7693 29.2495C83.2294 25.1396 81.1842 21.1537 77.5773 19.1305L74.9066 16.2267C71.9676 13.031 67.8243 11.2125 63.4826 11.2125L64.5006 3.2944H27.7761ZM63.0911 13.7742L62.3081 20.5278H72.096L73.6621 19.1305L73.1087 18.4664C70.6312 15.4932 66.9611 13.7742 63.0911 13.7742Z" fill="currentColor"/>
<path fill-rule="evenodd" clip-rule="evenodd" d="M43.1236 44.4373C46.9293 44.4373 50.0144 41.3788 50.0144 37.606C50.0144 33.8332 46.9293 30.7747 43.1236 30.7747C39.318 30.7747 36.2329 33.8332 36.2329 37.606C36.2329 41.3788 39.318 44.4373 43.1236 44.4373ZM46.2558 37.606C46.2558 37.5539 46.2545 37.5022 46.2519 37.4507H39.9953C39.9928 37.5022 39.9915 37.5539 39.9915 37.606C39.9915 39.3209 41.3938 40.7111 43.1236 40.7111C44.8535 40.7111 46.2558 39.3209 46.2558 37.606Z" fill="currentColor"/>
<path fill-rule="evenodd" clip-rule="evenodd" d="M72.5658 44.4373C76.3715 44.4373 79.4566 41.3788 79.4566 37.606C79.4566 33.8332 76.3715 30.7747 72.5658 30.7747C68.7602 30.7747 65.6751 33.8332 65.6751 37.606C65.6751 41.3788 68.7602 44.4373 72.5658 44.4373ZM75.698 37.606C75.698 37.5539 75.6967 37.5022 75.6942 37.4507H69.4375C69.435 37.5022 69.4337 37.5539 69.4337 37.606C69.4337 39.3209 70.836 40.7111 72.5658 40.7111C74.2957 40.7111 75.698 39.3209 75.698 37.606Z" fill="currentColor"/>
</svg>
