<svg width="48" height="48" viewBox="0 0 48 48" id="root" xmlns="http://www.w3.org/2000/svg">
<path fill-rule="evenodd" clip-rule="evenodd" d="M10 8C10 4.68629 12.6863 2 16 2H32C35.3137 2 38 4.68629 38 8V40C38 43.3137 35.3137 46 32 46H16C12.6863 46 10 43.3137 10 40V8ZM16 6C14.8954 6 14 6.89543 14 8V40C14 41.1046 14.8954 42 16 42H32C33.1046 42 34 41.1046 34 40V8C34 6.89543 33.1046 6 32 6H16Z" fill="currentColor"/>
<path d="M4 12C5.10457 12 6 12.8954 6 14V34C6 35.1046 5.10457 36 4 36C2.89543 36 2 35.1046 2 34V14C2 12.8954 2.89543 12 4 12Z" fill="currentColor"/>
<path d="M46 14C46 12.8954 45.1046 12 44 12C42.8954 12 42 12.8954 42 14V34C42 35.1046 42.8954 36 44 36C45.1046 36 46 35.1046 46 34V14Z" fill="currentColor"/>
</svg>
