<svg width="48" height="48" viewBox="0 0 48 48" id="root" xmlns="http://www.w3.org/2000/svg">
<path d="M22 8C20.8954 8 20 8.89543 20 10C20 11.1046 20.8954 12 22 12H26C27.1046 12 28 11.1046 28 10C28 8.89543 27.1046 8 26 8H22Z" fill="currentColor"/>
<path fill-rule="evenodd" clip-rule="evenodd" d="M8 8V13.6148L4.14305 23.2572C4.04855 23.4935 4 23.7456 4 24V40C4 43.3137 6.68629 46 10 46H38C41.3137 46 44 43.3137 44 40V24C44 23.7456 43.9515 23.4935 43.857 23.2572L40 13.6148V8C40 4.68629 37.3137 2 34 2H14C10.6863 2 8 4.68629 8 8ZM12 8C12 6.89543 12.8954 6 14 6H34C35.1046 6 36 6.89543 36 8V14C36 14.2544 36.0485 14.5065 36.143 14.7428L40 24.3852V40C40 41.1046 39.1046 42 38 42H16V24C16 23.7456 15.9514 23.4935 15.857 23.2572L12 13.6148V8ZM12 24.3852V42H10C8.89543 42 8 41.1046 8 40V24.3852L10 19.3852L12 24.3852Z" fill="currentColor"/>
</svg>
